<svg xmlns="http://www.w3.org/2000/svg" width="1200" height="1600" viewBox="0 0 1200 1600">
  <rect width="1200" height="1600" fill="#1a1a2e"/>
  <rect x="200" y="400" width="800" height="600" rx="20" fill="#16213e" stroke="#6D5DFC" stroke-width="2"/>
  <rect x="250" y="450" width="150" height="100" rx="8" fill="#0f3460"/>
  <rect x="450" y="450" width="150" height="100" rx="8" fill="#0f3460"/>
  <rect x="650" y="450" width="150" height="100" rx="8" fill="#0f3460"/>
  <rect x="850" y="450" width="100" height="100" rx="8" fill="#0f3460"/>
  <circle cx="325" cy="500" r="20" fill="#6D5DFC" opacity="0.5"/>
  <circle cx="525" cy="500" r="20" fill="#6D5DFC" opacity="0.5"/>
  <circle cx="725" cy="500" r="20" fill="#6D5DFC" opacity="0.3"/>
  <circle cx="900" cy="500" r="20" fill="#6D5DFC" opacity="0.7"/>
  <line x1="250" y1="650" x2="950" y2="650" stroke="#6D5DFC" stroke-width="1" opacity="0.3"/>
  <line x1="250" y1="700" x2="950" y2="700" stroke="#6D5DFC" stroke-width="1" opacity="0.3"/>
  <line x1="250" y1="750" x2="950" y2="750" stroke="#6D5DFC" stroke-width="1" opacity="0.3"/>
  <line x1="250" y1="800" x2="950" y2="800" stroke="#6D5DFC" stroke-width="1" opacity="0.3"/>
  <line x1="250" y1="850" x2="950" y2="850" stroke="#6D5DFC" stroke-width="1" opacity="0.3"/>
  <rect x="250" y="900" width="100" height="30" rx="4" fill="#6D5DFC" opacity="0.8"/>
  <rect x="400" y="900" width="100" height="30" rx="4" fill="#6D5DFC" opacity="0.5"/>
  <rect x="550" y="900" width="100" height="30" rx="4" fill="#6D5DFC" opacity="0.6"/>
  <text x="600" y="200" font-family="monospace" font-size="60" fill="#6D5DFC" text-anchor="middle" opacity="0.8">SERVER</text>
  <text x="600" y="270" font-family="monospace" font-size="40" fill="#6D5DFC" text-anchor="middle" opacity="0.4">INFRASTRUCTURE</text>
  <rect x="350" y="1000" width="500" height="8" rx="4" fill="#6D5DFC" opacity="0.3"/>
  <circle cx="400" cy="1004" r="8" fill="#6D5DFC" opacity="0.8"/>
  <circle cx="500" cy="1004" r="8" fill="#6D5DFC" opacity="0.5"/>
  <circle cx="600" cy="1004" r="8" fill="#6D5DFC" opacity="0.6"/>
  <circle cx="700" cy="1004" r="8" fill="#6D5DFC" opacity="0.4"/>
  <circle cx="800" cy="1004" r="8" fill="#6D5DFC" opacity="0.7"/>
</svg>
