<svg xmlns="http://www.w3.org/2000/svg" width="1200" height="800" viewBox="0 0 1200 800">
  <rect width="1200" height="800" fill="#0d0d1a"/>
  <rect x="200" y="150" width="800" height="500" rx="30" fill="none" stroke="#6D5DFC" stroke-width="2" opacity="0.3"/>
  <rect x="250" y="200" width="700" height="400" rx="15" fill="#151525" stroke="#6D5DFC" stroke-width="1" opacity="0.2"/>
  <rect x="300" y="250" width="200" height="120" rx="10" fill="#1a1a30" stroke="#6D5DFC" stroke-width="1" opacity="0.3"/>
  <rect x="550" y="250" width="200" height="120" rx="10" fill="#1a1a30" stroke="#6D5DFC" stroke-width="1" opacity="0.3"/>
  <rect x="800" y="250" width="100" height="120" rx="10" fill="#1a1a30" stroke="#6D5DFC" stroke-width="1" opacity="0.3"/>
  <rect x="300" y="420" width="600" height="80" rx="8" fill="#1a1a30" stroke="#6D5DFC" stroke-width="1" opacity="0.2"/>
  <rect x="300" y="540" width="100" height="30" rx="4" fill="#6D5DFC" opacity="0.3"/>
  <rect x="430" y="540" width="100" height="30" rx="4" fill="#6D5DFC" opacity="0.2"/>
  <rect x="560" y="540" width="100" height="30" rx="4" fill="#6D5DFC" opacity="0.25"/>
  <rect x="350" y="300" width="100" height="30" rx="4" fill="#6D5DFC" opacity="0.15"/>
  <rect x="600" y="300" width="100" height="30" rx="4" fill="#6D5DFC" opacity="0.15"/>
  <circle cx="850" cy="310" r="15" fill="#6D5DFC" opacity="0.3"/>
  <circle cx="850" cy="310" r="6" fill="#6D5DFC" opacity="0.6"/>
  <text x="600" y="100" font-family="monospace" font-size="24" fill="#6D5DFC" text-anchor="middle" opacity="0.4">MICROCHIP</text>
</svg>
